<svg xmlns="http://www.w3.org/2000/svg" viewBox="0 0 129.83 149.07"><defs><style>.cls-1{fill:#fff;}</style></defs><title>Asset 2logo</title><g id="Layer_2" data-name="Layer 2"><g id="Layer_1-2" data-name="Layer 1"><path class="cls-1" d="M64.55,6.56s40.33-2.42,57.6,35.69c0,0,.12.49,1,.37s6.11-1.17,6.11-1.17,1-.3.37-2.2S119,14.21,89,3.61C89,3.61,55.68-9.2,23,13.44S2.1,72.24,2.1,72.24,13.32,112,61.72,114.17c0,0,50,4.78,68.11-41.19l-7.72-2.19s-4.87,20.29-29.06,31.56c0,0-37.62,16.28-67.58-8.5S13,35,13,35,28.44,7.21,64.55,6.56"/><path class="cls-1" d="M96.92,24.13s.65.14.64-1l-1-2.84s-.46-.51-1.7,0-16.67,7.76-21.6,27.93,6.08,35.83,6.08,35.83,4.89,7,9.83,9.89c0,0-4.23,1.38-5.7,1.84,0,0-.54,1,.56,1.1s14.18,2.76,14.18,2.76l-2-13.5a.82.82,0,0,0-1.2,0l-1.92,5a35.25,35.25,0,0,1-14.49-18s-7.88-17.74,5-38a15.84,15.84,0,0,1,2-2.57,47.11,47.11,0,0,1,11.33-8.48"/><polygon class="cls-1" points="64.46 100.78 64.45 97.36 55.65 97.37 55.62 59.36 64.42 59.35 64.42 56.06 55.62 56.06 55.58 18.79 64.38 18.78 64.38 15.97 48.37 15.99 48.45 100.8 64.46 100.78"/><polygon class="cls-1" points="30.94 64.27 41.33 64.26 41.32 62.4 33.63 62.41 33.61 49.94 30.93 49.95 30.94 64.27"/><polygon class="cls-1" points="16.38 51.24 16.39 56.01 24.09 56.01 24.09 57.28 16.39 57.29 16.39 62.42 24.09 62.41 24.09 64.28 13.7 64.29 13.69 49.96 24.08 49.95 24.08 51.24 16.38 51.24"/><path class="cls-1" d="M26.6,129.05s-2.2-3.42-5.75-3.91S10.1,129.55,8.28,138s11.12,4.87,13.81,1.57c0,0,1.1-.37.61.86s-2.2,5.87-2.2,5.87S4.62,153.63.58,144.47c0,0-3.43-10.75,10.27-21.46a9.85,9.85,0,0,1,2-1.21c2.91-1.4,10.46-4.15,17.57.65l-2.68,6.23s-.61,1-1.1.37"/><path class="cls-1" d="M121.92,129s-2.2-3.42-5.75-3.9-10.75,4.4-12.57,12.84,11.12,4.88,13.81,1.58c0,0,1.1-.37.61.85s-2.19,5.87-2.19,5.87S100,153.54,95.9,144.38c0,0-3.25-10.19,9.23-20.62a16.32,16.32,0,0,1,4.55-2.72c3.55-1.37,9.95-2.78,16,1.32L123,128.59s-.61,1-1.1.37"/><polygon class="cls-1" points="35.15 120.36 23.68 147.87 42.38 147.85 44.21 142.72 32.72 142.73 35.77 135.76 46.65 135.87 48.47 130.45 38.21 130.46 40.04 125.61 51.77 125.85 54.09 120.35 35.15 120.36"/><polygon class="cls-1" points="58.85 120.34 47.39 147.85 66.09 147.83 67.92 142.7 56.43 142.71 65.88 120.33 58.85 120.34"/><polygon class="cls-1" points="81.36 120.32 69.9 147.83 88.59 147.81 90.42 142.68 78.94 142.69 81.98 135.72 92.86 135.83 94.69 130.41 84.42 130.42 86.25 125.57 97.98 125.81 100.3 120.3 81.36 120.32"/></g></g></svg>